<svg width="25" height="24" viewBox="0 0 25 24" fill="none" xmlns="http://www.w3.org/2000/svg">
<path d="M21.1007 3.41168C20.9744 3.28514 20.8243 3.18475 20.6592 3.11626C20.494 3.04777 20.317 3.01251 20.1382 3.01251C19.9594 3.01251 19.7823 3.04777 19.6172 3.11626C19.452 3.18475 19.302 3.28514 19.1757 3.41168L12.4997 10.0747L5.82368 3.39868C5.69728 3.27228 5.54723 3.17202 5.38208 3.10361C5.21694 3.03521 5.03993 3 4.86118 3C4.68243 3 4.50543 3.03521 4.34028 3.10361C4.17513 3.17202 4.02508 3.27228 3.89868 3.39868C3.77228 3.52508 3.67202 3.67513 3.60361 3.84028C3.53521 4.00543 3.5 4.18243 3.5 4.36118C3.5 4.53993 3.53521 4.71694 3.60361 4.88208C3.67202 5.04723 3.77228 5.19728 3.89868 5.32368L10.5747 11.9997L3.89868 18.6757C3.77228 18.8021 3.67202 18.9521 3.60361 19.1173C3.53521 19.2824 3.5 19.4594 3.5 19.6382C3.5 19.8169 3.53521 19.9939 3.60361 20.1591C3.67202 20.3242 3.77228 20.4743 3.89868 20.6007C4.02508 20.7271 4.17513 20.8273 4.34028 20.8957C4.50543 20.9642 4.68243 20.9994 4.86118 20.9994C5.03993 20.9994 5.21694 20.9642 5.38208 20.8957C5.54723 20.8273 5.69728 20.7271 5.82368 20.6007L12.4997 13.9247L19.1757 20.6007C19.431 20.856 19.7772 20.9994 20.1382 20.9994C20.4992 20.9994 20.8454 20.856 21.1007 20.6007C21.356 20.3454 21.4994 19.9992 21.4994 19.6382C21.4994 19.2772 21.356 18.931 21.1007 18.6757L14.4247 11.9997L21.1007 5.32368C21.3501 5.06815 21.4897 4.72524 21.4897 4.36818C21.4897 4.01112 21.3501 3.66821 21.1007 3.41268V3.41168Z" fill="#000"/>
</svg>
